# xmcd
#
# Track frame offsets: 
#        151
#        11681
#        28651
#        38744
#        47068
#        58771
#        71685
#
# Disc length: 1160 seconds
#
# Revision: 0
# Processed by: cddbd v1.5.1PL0 Copyright (c) Steve Scherf et al.
# Submitted via: ExactAudioCopy v0.95a5
#
DISCID=5a048607
DTITLE=Dirtminers - Meat and Electricity
DYEAR=2004
DGENRE=Crossover
TTITLE0=The Day I met You
TTITLE1=You Just Don't Care
TTITLE2=Addison County Clay
TTITLE3=Mississippi
TTITLE4=Death of a Barn Cat
TTITLE5=Doctor Bag
TTITLE6=Clever Hans
EXTD=
EXTT0=
EXTT1=
EXTT2=
EXTT3=
EXTT4=
EXTT5=
EXTT6=
PLAYORDER=
